<?xml version="1.0" encoding="UTF-8" standalone="no"?>
<svg
   width="15mm"
   height="15mm"
   version="1.1"
   viewBox="0 0 15 15"
   id="svg12"
   sodipodi:docname="favicon.svg"
   inkscape:version="1.2.2 (b0a8486541, 2022-12-01)"
   xmlns:inkscape="http://www.inkscape.org/namespaces/inkscape"
   xmlns:sodipodi="http://sodipodi.sourceforge.net/DTD/sodipodi-0.dtd"
   xmlns="http://www.w3.org/2000/svg"
   xmlns:svg="http://www.w3.org/2000/svg">
  <defs
     id="defs16" />
  <sodipodi:namedview
     id="namedview14"
     pagecolor="#ffffff"
     bordercolor="#000000"
     borderopacity="0.25"
     inkscape:showpageshadow="2"
     inkscape:pageopacity="0.0"
     inkscape:pagecheckerboard="0"
     inkscape:deskcolor="#d1d1d1"
     inkscape:document-units="mm"
     showgrid="false"
     inkscape:zoom="3.7394444"
     inkscape:cx="-9.3596792"
     inkscape:cy="86.911307"
     inkscape:window-width="1471"
     inkscape:window-height="1048"
     inkscape:window-x="2212"
     inkscape:window-y="0"
     inkscape:window-maximized="0"
     inkscape:current-layer="g10" />
  <g
     transform="translate(-54.216 -64.599)"
     id="g10">
    <rect
       x="54.216"
       y="64.598999"
       width="15"
       height="15"
       fill="#3771c8"
       stroke-width="0.088388"
       id="rect2"
       rx="5"
       ry="5"
       style="fill:#2a7fff" />
    <g
       transform="matrix(0.25842628,0,0,0.25842628,-1.0055561,-0.76463821)"
       fill="#ffffff"
       style="white-space:pre;shape-inside:url(#rect3485)"
       aria-label="ah"
       id="g8">
      <path
         d="m 226.97,281.62 -4.9805,-0.89843 q 0.83984,-3.0078 2.8906,-4.4531 2.05076,-1.4453 6.0938,-1.4453 3.6719,0 5.4688,0.87891 1.7969,0.85937 2.5195,2.207 0.74219,1.3281 0.74219,4.9023 l -0.0586,6.4062 q 0,2.7344 0.2539,4.043 0.27344,1.2891 0.9961,2.7734 h -5.4297 q -0.21484,-0.54688 -0.52734,-1.6211 -0.13672,-0.48828 -0.19532,-0.64453 -1.4062,1.3672 -3.0078,2.0508 -1.6016,0.6836 -3.418,0.6836 -3.2031,0 -5.0586,-1.7383 -1.8359,-1.7383 -1.8359,-4.3945 0,-1.7578 0.83984,-3.125 0.83985,-1.3867 2.3438,-2.1094 1.5234,-0.74219 4.375,-1.2891 3.8477,-0.72266 5.332,-1.3477 v -0.54687 q 0,-1.582 -0.78125,-2.2461 -0.78125,-0.68359 -2.9492,-0.68359 -1.4648,0 -2.2852,0.58594 -0.82031,0.5664 -1.3281,2.0117 z m 7.3438,4.4531 q -1.0547,0.35156 -3.3398,0.83984 -2.2852,0.48828 -2.9883,0.95703 -1.0742,0.76172 -1.0742,1.9336 0,1.1523 0.85938,1.9922 0.85937,0.83984 2.1875,0.83984 1.4844,0 2.832,-0.97656 0.99609,-0.74219 1.3086,-1.8164 0.21485,-0.70312 0.21485,-2.6758 z"
         id="path4" />
      <path
         d="m 250.59,267.4 v 10.527 q 2.6562,-3.1055 6.3476,-3.1055 1.8945,0 3.418,0.70312 1.5234,0.70313 2.2852,1.7969 0.78125,1.0938 1.0547,2.4219 0.29296,1.3281 0.29296,4.1211 v 12.168 h -5.4883 v -10.957 q 0,-3.2617 -0.3125,-4.1406 -0.3125,-0.8789 -1.1133,-1.3867 -0.78125,-0.52734 -1.9726,-0.52734 -1.3672,0 -2.4414,0.66406 -1.0742,0.66406 -1.582,2.0117 -0.48828,1.3281 -0.48828,3.9453 v 10.391 h -5.4883 v -28.633 z"
         id="path6" />
    </g>
  </g>
</svg>
